<svg width="1280" height="142" viewBox="0 0 1280 142" fill="none" xmlns="http://www.w3.org/2000/svg">
<path d="M0 109.241L30.5778 116.297C61.1556 123.238 122.311 137.348 183.182 139.738C244.196 142.241 304.782 133.138 365.796 133.479C426.667 133.934 487.822 143.721 548.693 141.445C609.707 139.169 670.293 124.831 731.307 125.969C792.178 127.107 853.333 143.721 914.204 143.379C975.218 143.038 1035.8 125.514 1096.82 126.31C1157.69 127.107 1218.84 145.997 1249.42 155.555L1280 165V0H1249.42C1218.84 0 1157.69 0 1096.82 0C1035.8 0 975.218 0 914.204 0C853.333 0 792.178 0 731.307 0C670.293 0 609.707 0 548.693 0C487.822 0 426.667 0 365.796 0C304.782 0 244.196 0 183.182 0C122.311 0 61.1556 0 30.5778 0H0V109.241Z" fill="#2D5794"/>
<path d="M0 121.759L30.5778 123.124C61.1556 124.376 122.311 127.107 183.182 120.052C244.196 112.997 304.782 96.3828 365.796 96.1552C426.667 95.9276 487.822 112.314 548.693 114.134C609.707 116.069 670.293 103.552 731.307 102.072C792.178 100.479 853.333 110.038 914.204 117.434C975.218 124.831 1035.8 130.066 1096.82 128.814C1157.69 127.448 1218.84 119.483 1249.42 115.5L1280 111.517V0H1249.42C1218.84 0 1157.69 0 1096.82 0C1035.8 0 975.218 0 914.204 0C853.333 0 792.178 0 731.307 0C670.293 0 609.707 0 548.693 0C487.822 0 426.667 0 365.796 0C304.782 0 244.196 0 183.182 0C122.311 0 61.1556 0 30.5778 0H0V121.759Z" fill="#2A518A"/>
<path d="M0 100.138L30.5778 97.2931C61.1556 94.4483 122.311 88.7586 183.182 84.2069C244.196 79.6552 304.782 76.2414 365.796 77.9483C426.667 79.6552 487.822 86.4827 548.693 89.5552C609.707 92.5138 670.293 91.831 731.307 86.7103C792.178 81.5896 853.333 72.031 914.204 69.4138C975.218 66.7965 1035.8 70.8931 1096.82 76.469C1157.69 81.931 1218.84 88.7586 1249.42 92.1724L1280 95.5862V0H1249.42C1218.84 0 1157.69 0 1096.82 0C1035.8 0 975.218 0 914.204 0C853.333 0 792.178 0 731.307 0C670.293 0 609.707 0 548.693 0C487.822 0 426.667 0 365.796 0C304.782 0 244.196 0 183.182 0C122.311 0 61.1556 0 30.5778 0H0V100.138Z" fill="#274C81"/>
<path d="M0 37.5517L30.5778 43.8103C61.1556 50.069 122.311 62.5862 183.182 64.6345C244.196 66.7965 304.782 58.3759 365.796 54.6207C426.667 50.8655 487.822 51.5483 548.693 53.8241C609.707 56.1 670.293 59.969 731.307 57.4655C792.178 54.9621 853.333 46.3138 914.204 47.2241C975.218 48.1345 1035.8 58.831 1096.82 60.6517C1157.69 62.5862 1218.84 55.7586 1249.42 52.3448L1280 48.931V0H1249.42C1218.84 0 1157.69 0 1096.82 0C1035.8 0 975.218 0 914.204 0C853.333 0 792.178 0 731.307 0C670.293 0 609.707 0 548.693 0C487.822 0 426.667 0 365.796 0C304.782 0 244.196 0 183.182 0C122.311 0 61.1556 0 30.5778 0H0V37.5517Z" fill="#254678"/>
<path d="M0 31.8621L30.5778 31.5207C61.1556 31.0655 122.311 30.3828 183.182 29.5862C244.196 28.7897 304.782 28.1069 365.796 30.3828C426.667 32.6586 487.822 37.8931 548.693 41.5345C609.707 45.1759 670.293 46.9966 731.307 44.0379C792.178 40.9655 853.333 33 914.204 32.2034C975.218 31.5207 1035.8 37.8931 1096.82 41.7621C1157.69 45.5172 1218.84 46.6552 1249.42 47.2241L1280 47.7931V0H1249.42C1218.84 0 1157.69 0 1096.82 0C1035.8 0 975.218 0 914.204 0C853.333 0 792.178 0 731.307 0C670.293 0 609.707 0 548.693 0C487.822 0 426.667 0 365.796 0C304.782 0 244.196 0 183.182 0C122.311 0 61.1556 0 30.5778 0H0V31.8621Z" fill="#22416F"/>
</svg>
